<?xml version="1.0" encoding="UTF-8" standalone="no"?>
<!-- Created with Inkscape (http://www.inkscape.org/) -->

<svg height="760" width="620" version="1.0" xmlns="http://www.w3.org/2000/svg" xmlns:svg="http://www.w3.org/2000/svg" xmlns:rdf="http://www.w3.org/1999/02/22-rdf-syntax-ns#" xmlns:cc="http://creativecommons.org/ns#" xmlns:dc="http://purl.org/dc/elements/1.1/">
   <path d="m310.93 7.5c-78.64 0.043-104.88 2.4562-165.21 14.821-46.881 9.608-129.08 31.365-137.31 38.183-3.6106 2.984-3.9785 255.04-0.4404 292.68 5.2884 56.26 19.543 124.25 43.591 174.07 44.607 92.41 116.7 146.61 221.45 199.07 18.49 9.27 35.19 27.74 36.99 27.74s20.36-18.47 38.85-27.74c104.75-52.46 176.84-106.66 221.45-199.07 24.05-49.82 38.3-117.81 43.59-174.07 3.54-37.64 3.17-289.69-0.43-292.68-8.24-6.814-90.44-28.571-137.32-38.179-60.33-12.365-86.57-14.778-165.21-14.821z" stroke="#000" stroke-width="7" fill="#003d8f" />
   <path d="m390.16 617.4h-155.95l-29.01-35.66s17.95-10.25 17.52-33.85c-0.42-23.54-0.6-46.55-0.6-46.55s-5.44 10.28-19.95 10.28c-14.5 0-19.94-9.07-21.76-15.72-1.81-6.65-21.06 0.62-17.53-42.31 10.28 9.67 23.15 14.78 31.43 6.04 10.52-11.1 1.02-34.33-22.36-61.05-21.2-24.22-41.11-55.01-31.43-98.53 7.79-35.07 35.87-60.65 44.73-69.51-5.05-13.7-3.8-18.17-15.29-41.71-18.65-8.29-36.76-52.63-49.11-79.07 11.34 17.77 27.37 21.17 36.31 28.39 2.01-8.49 24.32-20.86 36.6-1.75 8.13 12.65-0.32 36.25-22.25 31.93 14.94 9.33 19.57 11.04 29.98 7.88 12.93-3.93 14.93-13.54 15.54-26.24-10.27-0.27-10.99-7.27-9.81-15.89 1.55-11.27 3.99-20.38 18.55-9.2 11.59 8.89 8.61 17.89 3.62 21.04 8.53 9.32 13.24 16.87 32.58 16.27 19.35-0.61 33.9-7.82 36.31-30.79-11.45 7.39-24.01 14.61-41.47 3.22-14.39-9.4-10.01-31.97 0.42-40.642 10.08-8.379 23.35-6.097 35.25 3.017-3.02-7.858 6.33-40.731 18.48-46.149 13.32 8.007 18.74 34.207 17.49 46.149 6.42-4.74 19.42-11.887 32.45-4.554 21.23 11.949 14.12 34.609 5.45 42.179-6.8 5.94-25.53 9.24-40.86-2.88 2.23 23.07 16.65 27.55 32.7 30.76 9.83 1.96 25.65 1.88 36.32-12.89-6.35-3.31-7.56-10.33-0.14-19.5 13.19-16.32 19.39-10.96 22.37 5.82 2.34 13.2-3.78 15.55-10.11 16.15 1.49 9.7 3.13 21.05 15.1 25.05 9.02 3.01 17.56 1.62 33.44-8.8-18.21 6.42-33.46-16.71-25.79-30.48 9.73-17.48 30.06-15.17 38.15 0.3 7.33-6.52 25.61-17.38 34.57-28.39-11.18 31.63-36.51 82.1-48.23 79.07-14.43 31.62-15.95 42.31-15.95 42.31s48.75 34.41 47.75 96.11c-0.63 39.87-37.25 74.28-50.77 93.09-15.62 21.72-11.15 36.19-2.42 41.71 7.35 4.65 17.94-0.42 27.2-8.46 1.4 10.09 4.23 20.55-1.21 29.01s-8.57 7.72-16.93 10.88c0.71 6.19-1.59 11.32-7.85 15.11-9.78 5.93-20.93 4.41-32.65-6.64-0.23 21.58-0.97 31.71-0.6 44.73 0.6 21.76 18.74 35.06 18.74 35.06l-29.02 35.66z" fill-rule="evenodd" stroke="#000" stroke-width="7.59" fill="#ffcd50" />
   <path d="m222.12 504.97c0.95-10.91 0-37.65-0.65-59.76" fill-rule="evenodd" stroke="#000" stroke-width="7.59" fill="#ffcd50" />
   <path d="m401.04 502.25v-52.59" fill-rule="evenodd" stroke="#000" stroke-width="7.59" fill="#ffcd50" />
   <path d="m182.64 230.54c51.99-16.32 194.64-15.12 253.88 0.6" fill-rule="evenodd" stroke="#000" stroke-width="7.59" fill="#ffcd50" />
   <path d="m418.39 226.91c-1.82 68.91-13.55 214.67-17.98 219.45-28.58 30.81-57.88 50.45-57.88 50.45s-11.19 16.62-33.55 16.62c-25.39 0-34.33-15.94-34.33-15.94s-29.87-25.48-53.93-48.74c-12.98-12.56-17.52-145.07-20.55-223.05" fill-rule="evenodd" fill="#ffcd50" />
   <path d="m270.2 428.13c22.5-1.23 53.57-0.98 76.53 0-8.01-2.32-12.79-4.25-17.53-8.19-3.03-2.51-6.84-3.49-11.13-3.45-4.03 0.04-8.48 2.64-8.48 2.64s-3.49-2.64-8.62-2.64-7.41 1.43-12.53 4.53c-5.13 3.1-11.54 4.27-18.24 7.11z" fill-rule="evenodd" />
   <path d="m279.16 438.88c10.79 1.14 44.57 1.81 60.24 0 0.73 1.82-10.31 4.13-15.2 6.72-4.08 2.16-9.22 5.17-14.11 5.17-4.88 0-9.76-2.59-16.28-5.17-5.86-2.33-15.48-5.05-14.65-6.72z" fill-rule="evenodd" />
   <path d="m342.63 296.57c2.73-2.6 3.47-4.93 7.97-7.81 4.88-3.12 8.58-4.23 15.8-4.32 5.98-0.06 10.77 1.47 15.34 5.67 4.26 3.91 5.12 7.28 13.3 12.08-6.07 2.71-9.15 3.65-13.28 6.11-2.86 1.7-8.15 4.59-16.42 4.78-7.88 0.17-21.08-4.24-21.08-4.24s7.42 3.36 12.21-1.88c2.12-2.31 2.85-7.39 0.35-10.41-3.38-4.09-9.61-4.27-14.19 0.02z" fill-rule="evenodd" />
   <path d="m233.12 263.27c15.34 4.73 25.08 1.29 34.1 4.08 10.54 3.25 16.74 6.86 22.88 15.74 5.25 7.58 7.07 25.87 3.21 36.87-0.95-9.69-4.52-20.66-10.93-29.15-7.26-9.61-14.28-15.45-25.51-19.24-10.12-3.42-13.83 0.72-23.75-8.3z" fill-rule="evenodd" />
   <path d="m399.61 262.91c-1.84 3.18-4.52 8.46-11.37 12.1s-26.4 0.98-36.14 1.75c-6.83 0.54-16.84 2.98-22.09 8.98-5.34 6.09-8.25 8.97-9.19 33.65-1.29 33.78 3.06 28.68 4.34 53.41 0.28 5.32-1.24 7.44 3.24 11.79 3.11 3.01 10.9 1.24 10.9 1.24s-7.13 8.43-15.68 7.12c-4.79-0.73-7.49 7.29-13.32 7.14-5.83-0.14-10.83-8.94-14.84-8.16-5.47 1.08-10.65-2.59-13.55-6.07 4.44 2.1 7.13 2.04 12.29-2.05 5.24-4.15 11.71 4.31 19.38-4.76 5.68-6.73 1.49-12.15 0.71-16.51-0.95-5.31-2.13-29.39-1.98-52.51 0.08-11.43 1.35-22.3 9.77-31.17 6.78-7.15 19.53-13.62 36-13.91 17.77-0.31 34.84 0.94 41.53-2.04z" fill-rule="evenodd" />
   <path d="m423.69 279.09c-9.93 0.45-6.77 31.39-10.5 59.38-2.36 7.95-5.86 19.08-7.41 20.69-3.77 3.91-10.94 6.62-10.94 6.62l-14.5 35.38 18.88-28.22s1.96-0.79 4.34-1.97c-4.66 68.85-6.62 71.36-8.87 75.03-5.61 9.13 0.53 0.01 2.44 6.67 1.47 3.7 1.89 6.56 2.25 6.67 4.87 1.6 7.58 15.82 21.62 22.22-11.41-8.26-12.68-19.34-14-22.31-1.15-2.57-1.29-8.41-0.91-14.94 0.01-0.02 0-0.04 0-0.06 6.36-35 32.3-79.64 32.94-109.09-1.83 16-2.85 22.59-25.09 53.5 8.88-34.45 21.91-86.61 9.75-109.57z" fill-rule="evenodd" />
   <path d="m221.01 451s-4.87-0.54-0.3 8c8.74 16.3 39.85 41.03 55.67 46.66 7.06 6.73 22.07 31.95 43.06 29.06 17.24-2.37 18.82-9.81 27.46-16.2 18.16-7.68 32.85-20.46 53.13-41.92-1.31-13.05-3.74-30.59-3.74-30.59s-18.84 21.16-30.72 30.6c-6.2 4.93-25.01 17.96-25.01 17.96s-13.07 20.02-31 20.02c-17.94 0-30-20.02-30-20.02s-19.46-11.35-30.87-20.81c-11.41-9.45-27.03-22.1-27.68-22.76z" fill-rule="evenodd" stroke="#000" stroke-width="1.65px" />
   <path d="m206.72 341.65s1.11 13.25 6.07 18.96c3.1 3.55 11.6 7.17 11.6 7.17l10.3 24.84-11.22-20.98s-9.74-4.44-13.25-7.54c-4.79-4.23-1.66-18.03-3.5-22.45z" fill-rule="evenodd" />
   <g fill-rule="evenodd" transform="matrix(1.0404 0 0 1.0404 -12.562 -8.3278)">
      <path d="m306.25 188.53l4.68-4.68 4.68 4.68-4.68 4.67-4.68-4.67z" />
      <path d="m309.54 185.19l1.41-13.33 1.37 13.35-2.78-0.02z" />
      <path d="m309.54 191.69l1.41 13.33 1.37-13.35-2.78 0.02z" />
   </g>
   <g fill-rule="evenodd" transform="matrix(.97463 .10244 -.10244 .97463 70.122 -25.496)">
      <path d="m306.25 188.53l4.68-4.68 4.68 4.68-4.68 4.67-4.68-4.67z" />
      <path d="m309.54 185.19l1.41-13.33 1.37 13.35-2.78-0.02z" />
      <path d="m309.54 191.69l1.41 13.33 1.37-13.35-2.78 0.02z" />
   </g>
   <g fill-rule="evenodd" transform="matrix(.94275 .18325 -.18325 .94275 132.36 -40.414)">
      <path d="m306.25 188.53l4.68-4.68 4.68 4.68-4.68 4.67-4.68-4.67z" />
      <path d="m309.54 185.19l1.41-13.33 1.37 13.35-2.78-0.02z" />
      <path d="m309.54 191.69l1.41 13.33 1.37-13.35-2.78 0.02z" />
   </g>
   <g fill-rule="evenodd" transform="matrix(.90473 .25943 -.25943 .90473 190.2 -49.516)">
      <path d="m306.25 188.53l4.68-4.68 4.68 4.68-4.68 4.67-4.68-4.67z" />
      <path d="m309.54 185.19l1.41-13.33 1.37 13.35-2.78-0.02z" />
      <path d="m309.54 191.69l1.41 13.33 1.37-13.35-2.78 0.02z" />
   </g>
   <g fill-rule="evenodd" transform="matrix(-.97463 .10244 .10244 .97463 551.6 -25.496)">
      <path d="m306.25 188.53l4.68-4.68 4.68 4.68-4.68 4.67-4.68-4.67z" />
      <path d="m309.54 185.19l1.41-13.33 1.37 13.35-2.78-0.02z" />
      <path d="m309.54 191.69l1.41 13.33 1.37-13.35-2.78 0.02z" />
   </g>
   <g fill-rule="evenodd" transform="matrix(-.94275 .18325 .18325 .94275 489.36 -40.414)">
      <path d="m306.25 188.53l4.68-4.68 4.68 4.68-4.68 4.67-4.68-4.67z" />
      <path d="m309.54 185.19l1.41-13.33 1.37 13.35-2.78-0.02z" />
      <path d="m309.54 191.69l1.41 13.33 1.37-13.35-2.78 0.02z" />
   </g>
   <g fill-rule="evenodd" transform="matrix(-.90473 .25943 .25943 .90473 431.52 -49.516)">
      <path d="m306.25 188.53l4.68-4.68 4.68 4.68-4.68 4.67-4.68-4.67z" />
      <path d="m309.54 185.19l1.41-13.33 1.37 13.35-2.78-0.02z" />
      <path d="m309.54 191.69l1.41 13.33 1.37-13.35-2.78 0.02z" />
   </g>
   <path d="m305.81 217.53c-22.16 0-79.82 5.86-105.59 9.13-0.15 0.59-4.62 10.09 0.28 9.15 21.04-4.02 85.45-7.38 105.66-6.87 39.75 1.01 93.63 5.23 121.31 8.03 0 0 0.71 14.1 1.17 11.2 1.01-6.38 14.06-10.06 14.06-10.06-0.81-2.76-2.01-5.58-2.54-7.73-32.6-7.45-112.17-12.85-134.35-12.85z" fill-rule="evenodd" stroke="#000" stroke-width="1.65px" />
   <path d="m226.2 296.22c2.74-2.6 3.47-4.93 7.98-7.81 4.88-3.12 8.23-3.88 15.44-3.96 5.98-0.07 11.13 1.12 15.69 5.31 4.27 3.91 5.13 7.28 13.3 12.09-6.06 2.7-9.14 3.64-13.28 6.1-2.86 1.7-8.15 4.59-16.42 4.78-7.87 0.17-21.07-4.23-21.07-4.23s7.41 3.35 12.2-1.89c2.12-2.31 2.85-7.38 0.35-10.41-3.38-4.09-9.61-4.27-14.19 0.02z" fill-rule="evenodd" />
   <path d="m193.29 233.19s18.6-6.4 41.71-8.62c-4.18 21.88-27.27 68.44-34.6 68.14-7.83-0.31-21.86 52.83-23.09 72.74-1.97-19.67-32.45-98.58 15.98-132.26z" fill-rule="evenodd" />
   <path d="m189.29 233.19s7.37-4.42 30.48-6.64c-0.25 19.67-24.34 60.23-29.5 73.51-5.22 13.42-16.22 73.99-13.03 88.25 2.46-20.4-36.38-121.44 12.05-155.12z" fill-rule="evenodd" fill="#ffcd50" />
   <path d="m432.33 234.84s-12.68-5.98-35.79-8.2c4.18 21.88 19.87 58.08 26.78 60.54 7.39 2.61 23.76 60 24.99 79.91 1.97-19.66 32.45-98.57-15.98-132.25z" fill-rule="evenodd" />
   <path d="m440.14 237.8s-11.18-6.12-34.29-8.33c0.25 19.67 24.34 58.96 29.5 72.23 5.22 13.43 16.23 74 13.03 88.26-2.46-20.41 43.78-114.26-8.24-152.16z" fill-rule="evenodd" fill="#ffcd50" />
   <path d="m300.79 478.88c7.41-3.71 10.66-3.34 19.16 0.08-4.37-3.16-3.75-7.32-10.34-8.42-1.88 4.37-6.68 4.18-8.82 8.34z" fill-rule="evenodd" />
   <path d="m209.99 274.34s-11.85 5.13-10.4 14.71c1.87 12.35 1.45 69.27 8.28 76.55 1.53 1.27 3.84 40.31 5.89 54.33 1.12 7.66 0.12 23.53 4.17 32.98 2.91 6.81 3.99 10.23 9.46 16.9 4.36-2.08 9.65-0.17 10.93-5.48-17.7-18.32-16.49-24.9-16.56-30.3-0.04-3.69-0.84-9.58-1.61-18.97-1.72-21.11-3.97-47.59-3.97-47.59s-4.71-7.7-5.22-12.62c-2.34-22.24-5.29-80.29-0.97-80.51z" fill-rule="evenodd" />
   <g transform="translate(283.09237,8.5261218)">
      <g transform="matrix(0.45968376,0,0,0.45968376,-165.37981,139.23455)">
         <path transform="translate(45.883117,292.76069)" d="m 40,0 v 20 h 20 20 20 20 20 20 v 20 h 20 v 20 h 20 v 20 h 20 v 20 h 20 20 20 20 20 20 V 80 h 20 V 60 h 20 V 40 h 20 20 v 20 h 20 v 20 h 20 20 20 20 20 20 20 V 60 h 20 V 40 h 20 V 20 0 H 600 580 560 540 520 500 480 460 440 420 400 380 360 340 320 300 280 260 240 220 200 180 160 140 120 100 80 60 Z m 0,20 H 20 0 v 20 h 20 20 z" style="fill:#000000;fill-opacity:1;stroke:none" />
         <path transform="translate(45.883117,292.76069)" d="m 200,20 v 20 h 20 V 20 Z m 20,20 v 20 h 20 V 40 Z m 20,0 h 20 V 20 h -20 z m 20,0 v 20 h 20 V 40 Z m 20,20 v 20 h 20 V 60 Z m -20,0 h -20 v 20 h 20 z" style="fill:#ffffff;fill-opacity:1;stroke:none" />
         <path d="m 485.88312,312.76069 h 20 v 20 h 20 v -20 h 20 v 20 h 20 v 20 h -20 v -20 h -20 v 20 h -20 v -20 h -20 z" style="fill:#ffffff;fill-opacity:1;stroke:none" />
      </g>
   </g>
</svg>